<?xml version="1.0" standalone="no"?>
<!DOCTYPE svg PUBLIC "-//W3C//DTD SVG 20010904//EN"
 "http://www.w3.org/TR/2001/REC-SVG-20010904/DTD/svg10.dtd">
<svg version="1.0" xmlns="http://www.w3.org/2000/svg"
 width="512.000000pt" height="512.000000pt" viewBox="0 0 512.000000 512.000000"
 preserveAspectRatio="xMidYMid meet">
<metadata>
Created by potrace 1.14, written by Peter Selinger 2001-2017
</metadata>
<g transform="translate(0.000000,512.000000) scale(0.100000,-0.100000)"
fill="#000000" stroke="none">
<path d="M1240 3333 c-318 -41 -574 -216 -686 -470 -64 -143 -67 -172 -69
-598 -2 -380 -2 -392 21 -484 70 -279 253 -478 527 -570 46 -16 104 -32 128
-36 24 -4 53 -9 64 -12 40 -10 282 -11 348 -1 97 13 229 53 311 94 147 74 291
208 353 329 22 42 73 168 73 179 0 2 -128 4 -284 4 l-285 0 -11 -28 c-44 -107
-222 -167 -410 -138 -193 31 -285 163 -289 416 -2 82 0 92 16 93 10 1 302 2
648 3 l630 1 0 240 c0 324 -11 387 -88 540 -166 331 -541 496 -997 438z m310
-442 c97 -30 175 -113 206 -218 8 -28 17 -90 19 -137 l4 -86 -42 -1 c-23 0
-192 -2 -376 -4 l-334 -4 7 93 c17 259 144 380 391 371 50 -2 106 -8 125 -14z"/>
<path d="M3940 3338 c-236 -25 -430 -178 -480 -380 -7 -27 -16 -48 -19 -48 -4
0 -7 82 -7 183 1 100 0 189 -2 198 -3 14 -35 15 -275 14 -150 -1 -274 -3 -277
-4 -3 0 -5 -475 -5 -1053 l0 -1053 288 0 289 0 2 690 c3 739 1 708 52 807 39
75 131 134 228 147 158 21 290 -29 351 -133 39 -66 46 -100 50 -230 2 -65 7
-121 10 -125 4 -3 141 -6 306 -6 261 -1 299 1 300 15 8 126 -3 318 -23 410
-37 174 -93 278 -208 391 -145 141 -345 202 -580 177z"/>
</g>
</svg>
